<svg width="20" height="20" viewBox="0 0 20 20" fill="none" xmlns="http://www.w3.org/2000/svg">
<path d="M14.5862 0H5.41381C2.42858 0 0 2.42858 0 5.41381V14.5863C0 17.5714 2.42858 20 5.41381 20H14.5863C17.5714 20 20 17.5714 20 14.5863V5.41381C20 2.42858 17.5714 0 14.5862 0V0ZM18.8275 14.5863C18.8275 16.9249 16.9249 18.8275 14.5862 18.8275H5.41381C3.0751 18.8275 1.17248 16.9249 1.17248 14.5863V5.41381C1.17248 3.0751 3.0751 1.17248 5.41381 1.17248H14.5863C16.9249 1.17248 18.8275 3.0751 18.8275 5.41381V14.5863Z" fill="black"/>
<path d="M9.99999 4.53125C6.98455 4.53125 4.5314 6.9844 4.5314 9.99984C4.5314 13.0153 6.98455 15.4684 9.99999 15.4684C13.0154 15.4684 15.4686 13.0153 15.4686 9.99984C15.4686 6.9844 13.0154 4.53125 9.99999 4.53125ZM9.99999 14.2959C7.63122 14.2959 5.70389 12.3688 5.70389 9.99984C5.70389 7.63107 7.63122 5.70373 9.99999 5.70373C12.3689 5.70373 14.2961 7.63107 14.2961 9.99984C14.2961 12.3688 12.3689 14.2959 9.99999 14.2959Z" fill="black"/>
<path d="M15.5993 2.58887C14.7082 2.58887 13.9834 3.31381 13.9834 4.20477C13.9834 5.09588 14.7082 5.82082 15.5993 5.82082C16.4904 5.82082 17.2154 5.09588 17.2154 4.20477C17.2154 3.31366 16.4904 2.58887 15.5993 2.58887ZM15.5993 4.64819C15.3549 4.64819 15.1559 4.44921 15.1559 4.20477C15.1559 3.96017 15.3549 3.76135 15.5993 3.76135C15.8439 3.76135 16.0429 3.96017 16.0429 4.20477C16.0429 4.44921 15.8439 4.64819 15.5993 4.64819Z" fill="black"/>
</svg>
