<svg width="23" height="23" viewBox="0 0 23 23" fill="none" xmlns="http://www.w3.org/2000/svg">
<path d="M17.5 0H5C2.23875 0 0 2.23875 0 5V17.5C0 20.2612 2.23875 22.5 5 22.5H12.0263V13.7987H9.0975V10.3925H12.0263V7.88625C12.0263 4.98125 13.8025 3.3975 16.395 3.3975C17.2687 3.395 18.1413 3.44 19.01 3.52875V6.56625H17.225C15.8125 6.56625 15.5375 7.23375 15.5375 8.21875V10.3875H18.9125L18.4737 13.7937H15.5175V22.5H17.5C20.2612 22.5 22.5 20.2612 22.5 17.5V5C22.5 2.23875 20.2612 0 17.5 0Z" fill="#0057FF"/>
</svg>
