<svg width="26" height="20" viewBox="0 0 26 20" fill="none" xmlns="http://www.w3.org/2000/svg">
<path d="M24.9775 2.7325C24.69 1.6575 23.8425 0.81 22.7675 0.5225C20.8175 2.6077e-07 13 0 13 0C13 0 5.1825 2.6077e-07 3.2325 0.5225C2.1575 0.81 1.31 1.6575 1.0225 2.7325C0.5 4.6825 0.5 10 0.5 10C0.5 10 0.5 15.3175 1.0225 17.2675C1.31 18.3425 2.1575 19.19 3.2325 19.4775C5.1825 20 13 20 13 20C13 20 20.8175 20 22.7675 19.4775C23.8437 19.19 24.69 18.3425 24.9775 17.2675C25.5 15.3175 25.5 10 25.5 10C25.5 10 25.5 4.6825 24.9775 2.7325ZM10.5 13.2475V6.7525C10.5 6.27125 11.0212 5.97125 11.4375 6.21125L17.0625 9.45875C17.4787 9.69875 17.4787 10.3012 17.0625 10.5412L11.4375 13.7887C11.0212 14.03 10.5 13.7287 10.5 13.2475Z" fill="#0057FF"/>
</svg>
