<svg width="20" height="20" viewBox="0 0 20 20" fill="none" xmlns="http://www.w3.org/2000/svg">
<path d="M19.8289 0.172624C19.6631 0.00684292 19.4144 -0.0441336 19.197 0.0428976L0.368828 7.57407C0.153399 7.66024 0.00914132 7.86539 0.000860091 8.09731C-0.00738208 8.32918 0.121993 8.54407 0.330742 8.64532L7.75526 12.2461L11.3561 19.6707C11.4543 19.8732 11.6594 20.0009 11.8832 20.0009C11.8901 20.0009 11.8971 20.0008 11.9041 20.0005C12.136 19.9923 12.3412 19.848 12.4273 19.6326L19.9586 0.804577C20.0456 0.586921 19.9946 0.338366 19.8289 0.172624ZM2.03539 8.16961L16.9817 2.19114L8.07432 11.0984L2.03539 8.16961ZM11.8318 17.9661L8.90295 11.927L17.8104 3.01973L11.8318 17.9661Z" fill="black"/>
</svg>
